<svg xmlns="http://www.w3.org/2000/svg" viewBox="0 0 350 120">
  <g fill="#FFFFFF">
    <path d="M60,10A50,50,0,1,0,110,60,50.06,50.06,0,0,0,60,10Zm0,92A42,42,0,1,1,102,60,42.05,42.05,0,0,1,60,102Z"/>
    
    <path d="M72.5,45.5H53.1a6.6,6.6,0,0,0-6.6,6.6V61.5a6.6,6.6,0,0,0,6.6,6.6h2.2v6.6l8.8-6.6h8.4a6.6,6.6,0,0,0,6.6-6.6V52.1A6.6,6.6,0,0,0,72.5,45.5Z"/>
    <path d="M75.2,40.5H62.5a8.2,8.2,0,0,0-8.2,8.2v1.5h18.2a8.2,8.2,0,0,1,8.2,8.2V68.2h1.5a8.2,8.2,0,0,0,8.2-8.2V48.7A8.2,8.2,0,0,0,75.2,40.5Z" opacity="0.6"/>
    
    <text x="130" y="78" font-family="Segoe UI, Roboto, Helvetica, Arial, sans-serif" font-weight="700" font-size="64" letter-spacing="-2">Moot</text>
  </g>
</svg>